<?xml version="1.0"?>
<svg version="1.0" xmlns="http://www.w3.org/2000/svg"
 width="600.000000pt" height="399.000000pt" viewBox="0 0 600.000000 399.000000"
 preserveAspectRatio="xMidYMid meet">
<g transform="translate(0.000000,399.000000) scale(0.100000,-0.100000)"
fill="#FF1313" stroke="none">
<path d="M3927 3841 c-109 -82 -211 -160 -225 -173 -15 -13 -63 -52 -107 -88
-100 -80 -320 -268 -445 -380 -217 -193 -535 -504 -505 -493 18 6 19 5 5 -11
-8 -10 234 106 538 258 856 428 1107 541 1457 657 403 134 628 111 833 -85
148 -142 255 -368 313 -666 20 -98 23 -147 23 -340 1 -192 -3 -243 -22 -345
-91 -487 -310 -807 -621 -909 -114 -37 -186 -47 -338 -45 -516 6 -1252 298
-2059 816 -89 56 -165 103 -168 103 -4 0 -37 -24 -74 -53 -367 -289 -834 -508
-1302 -608 -270 -57 -415 -51 -569 27 -114 58 -195 132 -279 257 -269 402
-281 1026 -28 1417 96 148 220 252 350 293 106 33 284 30 421 -7 324 -89 717
-318 1167 -683 71 -56 128 -99 128 -95 0 14 -225 255 -311 333 -287 259 -468
387 -714 505 -215 102 -345 136 -525 137 -136 0 -234 -23 -338 -78 -240 -127
-423 -407 -504 -772 -18 -82 -22 -131 -22 -303 -1 -179 2 -220 23 -320 85
-410 282 -697 572 -835 181 -86 388 -88 701 -9 451 113 870 335 1282 677 l30
24 140 -92 c705 -461 1350 -750 1876 -842 153 -26 393 -24 520 5 335 77 600
352 744 773 164 479 137 1076 -66 1484 -131 261 -324 429 -578 500 -94 27
-272 25 -410 -5 -497 -106 -1285 -509 -1957 -999 -46 -33 -83 -58 -83 -56 0 2
46 39 103 81 56 43 104 80 107 83 3 4 39 33 80 65 68 54 318 263 330 276 3 3
32 28 65 55 201 168 669 615 643 615 -2 0 -92 -67 -201 -149z m-1137 -1035 c0
-7 -121 -98 -126 -93 -3 2 23 25 58 50 65 47 68 49 68 43z"/>
<path d="M1565 2541 c-68 -25 -173 -79 -212 -108 -97 -74 -97 -178 -2 -270 53
-51 113 -79 205 -94 67 -12 73 -11 144 16 152 56 259 134 276 199 12 48 -106
186 -204 239 -68 37 -140 43 -207 18z"/>
<path d="M3395 2499 c-172 -56 -295 -143 -295 -210 0 -107 124 -202 300 -230
63 -10 76 -8 153 15 114 35 239 99 276 142 81 92 0 225 -171 279 -95 30 -178
31 -263 4z"/>
<path d="M3740 775 c-311 -38 -651 -167 -995 -375 -137 -83 -550 -362 -580
-392 -5 -6 31 10 81 35 50 25 180 86 290 135 613 275 1107 411 1497 412 l162
1 -37 20 c-58 30 -75 81 -42 127 32 46 17 52 -133 51 -76 -1 -185 -7 -243 -14z"/>
<path d="M4203 583 c4 -3 10 -3 14 0 3 4 0 7 -7 7 -7 0 -10 -3 -7 -7z"/>
</g>
</svg>